@startuml
'https://plantuml.com/class-diagram

' GENERATE CLASS DIAGRAM ===========
' Generator       : it.brunasti.java.diagrammer.ClassDiagrammer
' Path            : [/Users/paolobrunasti/Work/Mine/java-diagrammer/java-diagrammer/target/test-classes]
' Java Files Path : [/Users/paolobrunasti/Work/Mine/java-diagrammer/java-diagrammer/src/test/java/]
' Configuration   : []
' Generated at    : Wed Apr 03 18:27:44 CEST 2024



' CLASSES =======
class it.brunasti.java.diagrammer.ClassDiagrammerTest
class it.brunasti.java.diagrammer.UtilsTest
interface it.brunasti.java.diagrammer.TestConstants
class it.brunasti.java.diagrammer.ImportsIdentifierTest
class it.brunasti.java.diagrammer.teststructure.TestExtendedClass
class it.brunasti.java.diagrammer.teststructure.TestOtherClass
class it.brunasti.java.diagrammer.DocumentGenerationTest
class it.brunasti.java.diagrammer.DiagramPlotterTest
abstract it.brunasti.java.diagrammer.teststructure.TestAbstractClass
class it.brunasti.java.diagrammer.teststructure.TestBaseClass
enum it.brunasti.java.diagrammer.teststructure.TestEnumClass{
  FIRST
  SECOND
  THIRD
}
class it.brunasti.java.diagrammer.ClassDiagrammerMainTest
class it.brunasti.java.diagrammer.DebuggerTest

' INHERITANCES =======
it.brunasti.java.diagrammer.teststructure.TestBaseClass <|-- it.brunasti.java.diagrammer.teststructure.TestExtendedClass
it.brunasti.java.diagrammer.teststructure.TestAbstractClass <|-- it.brunasti.java.diagrammer.teststructure.TestOtherClass
it.brunasti.java.diagrammer.teststructure.TestAbstractClass <|-- it.brunasti.java.diagrammer.teststructure.TestBaseClass
java.lang.Enum <|-- it.brunasti.java.diagrammer.teststructure.TestEnumClass

' IMPLEMENT INTERFACE =======
it.brunasti.java.diagrammer.TestConstants <|.. it.brunasti.java.diagrammer.ClassDiagrammerTest
it.brunasti.java.diagrammer.TestConstants <|.. it.brunasti.java.diagrammer.UtilsTest
it.brunasti.java.diagrammer.TestConstants <|.. it.brunasti.java.diagrammer.ImportsIdentifierTest
it.brunasti.java.diagrammer.TestConstants <|.. it.brunasti.java.diagrammer.teststructure.TestOtherClass
it.brunasti.java.diagrammer.TestConstants <|.. it.brunasti.java.diagrammer.DocumentGenerationTest
it.brunasti.java.diagrammer.TestConstants <|.. it.brunasti.java.diagrammer.teststructure.TestBaseClass
it.brunasti.java.diagrammer.TestConstants <|.. it.brunasti.java.diagrammer.ClassDiagrammerMainTest
it.brunasti.java.diagrammer.TestConstants <|.. it.brunasti.java.diagrammer.DebuggerTest

' FIELDS =======
it.brunasti.java.diagrammer.teststructure.TestOtherClass --> it.brunasti.java.diagrammer.teststructure.TestBaseClass
it.brunasti.java.diagrammer.teststructure.TestOtherClass --> it.brunasti.java.diagrammer.teststructure.TestEnumClass
it.brunasti.java.diagrammer.teststructure.TestBaseClass --> it.brunasti.java.diagrammer.teststructure.TestBaseClass
it.brunasti.java.diagrammer.teststructure.TestBaseClass --> it.brunasti.java.diagrammer.teststructure.TestEnumClass

' USES =======
it.brunasti.java.diagrammer.ClassDiagrammerTest ..> it.brunasti.java.diagrammer.ClassDiagrammer
it.brunasti.java.diagrammer.UtilsTest ..> it.brunasti.java.diagrammer.Utils
it.brunasti.java.diagrammer.UtilsTest ..> java.util.Set
it.brunasti.java.diagrammer.UtilsTest ..> java.util.ArrayList
it.brunasti.java.diagrammer.UtilsTest ..> Ljava.lang.Object
it.brunasti.java.diagrammer.ImportsIdentifierTest ..> java.util.Set
it.brunasti.java.diagrammer.ImportsIdentifierTest ..> it.brunasti.java.diagrammer.ImportsIdentifier
it.brunasti.java.diagrammer.DocumentGenerationTest ..> Ljava.lang.String
it.brunasti.java.diagrammer.DocumentGenerationTest ..> java.util.List
it.brunasti.java.diagrammer.DocumentGenerationTest ..> it.brunasti.java.diagrammer.DiagramPlotter
it.brunasti.java.diagrammer.DiagramPlotterTest ..> java.util.List
it.brunasti.java.diagrammer.DiagramPlotterTest ..> it.brunasti.java.diagrammer.DiagramPlotter
it.brunasti.java.diagrammer.ClassDiagrammerMainTest ..> it.brunasti.java.diagrammer.ClassDiagrammerMain
it.brunasti.java.diagrammer.ClassDiagrammerMainTest ..> Ljava.lang.String
it.brunasti.java.diagrammer.ClassDiagrammerMainTest ..> org.apache.commons.cli.Options
it.brunasti.java.diagrammer.DebuggerTest ..> it.brunasti.java.diagrammer.Debugger

' IMPORTS =======
' Java Files Path : /Users/paolobrunasti/Work/Mine/java-diagrammer/java-diagrammer/src/test/java/
' it.brunasti.java.diagrammer.ClassDiagrammerTest
it.brunasti.java.diagrammer.ClassDiagrammerTest ..o org.junit.jupiter.api.Test
it.brunasti.java.diagrammer.ClassDiagrammerTest ..o  org.junit.jupiter.api.Assertions
it.brunasti.java.diagrammer.ClassDiagrammerTest ..o org.junit.jupiter.api.DisplayName

' it.brunasti.java.diagrammer.UtilsTest
it.brunasti.java.diagrammer.UtilsTest ..o org.junit.jupiter.api.Test
it.brunasti.java.diagrammer.UtilsTest ..o java.util.HashSet
it.brunasti.java.diagrammer.UtilsTest ..o java.nio.file.NoSuchFileException
it.brunasti.java.diagrammer.UtilsTest ..o org.json.simple.JSONObject
it.brunasti.java.diagrammer.UtilsTest ..o  org.junit.jupiter.api.Assertions
it.brunasti.java.diagrammer.UtilsTest ..o java.util.Set
it.brunasti.java.diagrammer.UtilsTest ..o java.io.IOException
it.brunasti.java.diagrammer.UtilsTest ..o org.json.simple.JSONArray
it.brunasti.java.diagrammer.UtilsTest ..o org.junit.jupiter.api.DisplayName
it.brunasti.java.diagrammer.UtilsTest ..o java.util.ArrayList

' it.brunasti.java.diagrammer.TestConstants

' it.brunasti.java.diagrammer.ImportsIdentifierTest
it.brunasti.java.diagrammer.ImportsIdentifierTest ..o org.junit.jupiter.api.Test
it.brunasti.java.diagrammer.ImportsIdentifierTest ..o  org.junit.jupiter.api.Assertions.assertDoesNotThrow
it.brunasti.java.diagrammer.ImportsIdentifierTest ..o it.brunasti.java.diagrammer.teststructure.TestBaseClass
it.brunasti.java.diagrammer.ImportsIdentifierTest ..o it.brunasti.java.diagrammer.teststructure.TestExtendedClass
it.brunasti.java.diagrammer.ImportsIdentifierTest ..o it.brunasti.java.diagrammer.teststructure.TestOtherClass
it.brunasti.java.diagrammer.ImportsIdentifierTest ..o java.util.Set
it.brunasti.java.diagrammer.ImportsIdentifierTest ..o  org.junit.jupiter.api.Assertions.assertEquals

' it.brunasti.java.diagrammer.teststructure.TestExtendedClass

' it.brunasti.java.diagrammer.teststructure.TestOtherClass
it.brunasti.java.diagrammer.teststructure.TestOtherClass ..o it.brunasti.java.diagrammer.TestConstants
it.brunasti.java.diagrammer.teststructure.TestOtherClass ..o  org.junit.jupiter.api.Assertions.assertDoesNotThrow
it.brunasti.java.diagrammer.teststructure.TestOtherClass ..o java.util.Set

' it.brunasti.java.diagrammer.DocumentGenerationTest
it.brunasti.java.diagrammer.DocumentGenerationTest ..o org.junit.jupiter.api.Test
it.brunasti.java.diagrammer.DocumentGenerationTest ..o  org.junit.jupiter.api.Assertions.assertDoesNotThrow

' it.brunasti.java.diagrammer.DiagramPlotterTest
it.brunasti.java.diagrammer.DiagramPlotterTest ..o org.junit.jupiter.api.Test
it.brunasti.java.diagrammer.DiagramPlotterTest ..o  org.junit.jupiter.api.Assertions
it.brunasti.java.diagrammer.DiagramPlotterTest ..o java.util.NoSuchElementException
it.brunasti.java.diagrammer.DiagramPlotterTest ..o java.io.FileNotFoundException

' it.brunasti.java.diagrammer.teststructure.TestAbstractClass

' it.brunasti.java.diagrammer.teststructure.TestBaseClass
it.brunasti.java.diagrammer.teststructure.TestBaseClass ..o it.brunasti.java.diagrammer.TestConstants

' it.brunasti.java.diagrammer.teststructure.TestEnumClass

' it.brunasti.java.diagrammer.ClassDiagrammerMainTest
it.brunasti.java.diagrammer.ClassDiagrammerMainTest ..o org.junit.jupiter.api.Test
it.brunasti.java.diagrammer.ClassDiagrammerMainTest ..o  org.junit.jupiter.api.Assertions.assertDoesNotThrow
it.brunasti.java.diagrammer.ClassDiagrammerMainTest ..o org.apache.commons.cli.Options
it.brunasti.java.diagrammer.ClassDiagrammerMainTest ..o  org.junit.jupiter.api.Assertions.assertNotNull
it.brunasti.java.diagrammer.ClassDiagrammerMainTest ..o org.junit.jupiter.api.DisplayName

' it.brunasti.java.diagrammer.DebuggerTest
it.brunasti.java.diagrammer.DebuggerTest ..o org.junit.jupiter.api.Test
it.brunasti.java.diagrammer.DebuggerTest ..o  org.junit.jupiter.api.Assertions
it.brunasti.java.diagrammer.DebuggerTest ..o org.junit.jupiter.api.DisplayName



@enduml
