@startuml
'https://plantuml.com/class-diagram

' GENERATE CLASS DIAGRAM ===========
' Generator       : it.brunasti.java.diagrammer.ClassDiagrammer
' Path            : [/Users/paolobrunasti/IdeaProjects/OCTA/labelscout/build/classes/java/main]
' Java Files Path : [/Users/paolobrunasti/IdeaProjects/OCTA/labelscout/src/main/java/]
' Configuration   : [/Users/paolobrunasti/IdeaProjects/mine/java-diagrammer/docs/octa/config.json]
' Generated at    : Mon May 18 09:47:06 CEST 2026
'
'   Stat infos    :
'       Files : [160]
'       Lines : [8922]
'     Classes : [160]
'     Methods : [1838]
'      Fields : [696]

' Include         : [./docs/includedFile.txt] ---------
title Example with legend and title

hide empty members


legend
Connections legend
----
--|> : Extends
..|> : Implements
----
--> : Fields and Attributes
..> : Uses
end legend
' Include end     : --------------------------



'!includesub OCTA-labelscout-class-diagram.puml!NL_CROLOX_LABELSCOUT
'!includesub OCTA-labelscout-class-diagram.puml!INHERITANCES_NL_CROLOX_LABELSCOUT
'!includesub OCTA-labelscout-class-diagram.puml!IMPLEMENTS_NL_CROLOX_LABELSCOUT
'!includesub OCTA-labelscout-class-diagram.puml!FIELDS_NL_CROLOX_LABELSCOUT
'!includesub OCTA-labelscout-class-diagram.puml!USES_NL_CROLOX_LABELSCOUT
'!includesub OCTA-labelscout-class-diagram.puml!IMPORTS_NL_CROLOX_LABELSCOUT

'!includesub OCTA-labelscout-class-diagram.puml!NL_CROLOX_LABELSCOUT_ASPECT
'!includesub OCTA-labelscout-class-diagram.puml!INHERITANCES_NL_CROLOX_LABELSCOUT_ASPECT
'!includesub OCTA-labelscout-class-diagram.puml!IMPLEMENTS_NL_CROLOX_LABELSCOUT_ASPECT
'!includesub OCTA-labelscout-class-diagram.puml!FIELDS_NL_CROLOX_LABELSCOUT_ASPECT
'!includesub OCTA-labelscout-class-diagram.puml!USES_NL_CROLOX_LABELSCOUT_ASPECT
'!includesub OCTA-labelscout-class-diagram.puml!IMPORTS_NL_CROLOX_LABELSCOUT_ASPECT

'!includesub OCTA-labelscout-class-diagram.puml!NL_CROLOX_LABELSCOUT_DOMAIN
'!includesub OCTA-labelscout-class-diagram.puml!INHERITANCES_NL_CROLOX_LABELSCOUT_DOMAIN
'!includesub OCTA-labelscout-class-diagram.puml!IMPLEMENTS_NL_CROLOX_LABELSCOUT_DOMAIN
'!includesub OCTA-labelscout-class-diagram.puml!FIELDS_NL_CROLOX_LABELSCOUT_DOMAIN
'!includesub OCTA-labelscout-class-diagram.puml!USES_NL_CROLOX_LABELSCOUT_DOMAIN
'!includesub OCTA-labelscout-class-diagram.puml!IMPORTS_NL_CROLOX_LABELSCOUT_DOMAIN

'!includesub OCTA-labelscout-class-diagram.puml!NL_CROLOX_LABELSCOUT_HELPER
'!includesub OCTA-labelscout-class-diagram.puml!INHERITANCES_NL_CROLOX_LABELSCOUT_HELPER
'!includesub OCTA-labelscout-class-diagram.puml!IMPLEMENTS_NL_CROLOX_LABELSCOUT_HELPER
'!includesub OCTA-labelscout-class-diagram.puml!FIELDS_NL_CROLOX_LABELSCOUT_HELPER
'!includesub OCTA-labelscout-class-diagram.puml!USES_NL_CROLOX_LABELSCOUT_HELPER
'!includesub OCTA-labelscout-class-diagram.puml!IMPORTS_NL_CROLOX_LABELSCOUT_HELPER

'!includesub OCTA-labelscout-class-diagram.puml!NL_CROLOX_LABELSCOUT_INTERCEPTOR
'!includesub OCTA-labelscout-class-diagram.puml!INHERITANCES_NL_CROLOX_LABELSCOUT_INTERCEPTOR
'!includesub OCTA-labelscout-class-diagram.puml!IMPLEMENTS_NL_CROLOX_LABELSCOUT_INTERCEPTOR
'!includesub OCTA-labelscout-class-diagram.puml!FIELDS_NL_CROLOX_LABELSCOUT_INTERCEPTOR
'!includesub OCTA-labelscout-class-diagram.puml!USES_NL_CROLOX_LABELSCOUT_INTERCEPTOR
'!includesub OCTA-labelscout-class-diagram.puml!IMPORTS_NL_CROLOX_LABELSCOUT_INTERCEPTOR

'!includesub OCTA-labelscout-class-diagram.puml!NL_CROLOX_LABELSCOUT_REPOSITORY
'!includesub OCTA-labelscout-class-diagram.puml!INHERITANCES_NL_CROLOX_LABELSCOUT_REPOSITORY
'!includesub OCTA-labelscout-class-diagram.puml!IMPLEMENTS_NL_CROLOX_LABELSCOUT_REPOSITORY
'!includesub OCTA-labelscout-class-diagram.puml!FIELDS_NL_CROLOX_LABELSCOUT_REPOSITORY
'!includesub OCTA-labelscout-class-diagram.puml!USES_NL_CROLOX_LABELSCOUT_REPOSITORY
'!includesub OCTA-labelscout-class-diagram.puml!IMPORTS_NL_CROLOX_LABELSCOUT_REPOSITORY

'!includesub OCTA-labelscout-class-diagram.puml!NL_CROLOX_LABELSCOUT_SERVICE
'!includesub OCTA-labelscout-class-diagram.puml!INHERITANCES_NL_CROLOX_LABELSCOUT_SERVICE
'!includesub OCTA-labelscout-class-diagram.puml!IMPLEMENTS_NL_CROLOX_LABELSCOUT_SERVICE
'!includesub OCTA-labelscout-class-diagram.puml!FIELDS_NL_CROLOX_LABELSCOUT_SERVICE
'!includesub OCTA-labelscout-class-diagram.puml!USES_NL_CROLOX_LABELSCOUT_SERVICE
'!includesub OCTA-labelscout-class-diagram.puml!IMPORTS_NL_CROLOX_LABELSCOUT_SERVICE

'!includesub OCTA-labelscout-class-diagram.puml!NL_CROLOX_LABELSCOUT_WEB
'!includesub OCTA-labelscout-class-diagram.puml!INHERITANCES_NL_CROLOX_LABELSCOUT_WEB
'!includesub OCTA-labelscout-class-diagram.puml!IMPLEMENTS_NL_CROLOX_LABELSCOUT_WEB
'!includesub OCTA-labelscout-class-diagram.puml!FIELDS_NL_CROLOX_LABELSCOUT_WEB
'!includesub OCTA-labelscout-class-diagram.puml!USES_NL_CROLOX_LABELSCOUT_WEB
'!includesub OCTA-labelscout-class-diagram.puml!IMPORTS_NL_CROLOX_LABELSCOUT_WEB



' CLASSES =======
!startsub NL_CROLOX_LABELSCOUT
class nl.crolox.labelscout.KeycloakLogoutHandler
class nl.crolox.labelscout.GlobalUtils
class nl.crolox.labelscout.LabelscoutApplication
class nl.crolox.labelscout.SecurityConfig
class nl.crolox.labelscout.OpenApiConfig
interface nl.crolox.labelscout.Constants

!endsub

!startsub NL_CROLOX_LABELSCOUT_ASPECT
interface nl.crolox.labelscout.aspect.Loggable
class nl.crolox.labelscout.aspect.LoggingAspect

!endsub

!startsub NL_CROLOX_LABELSCOUT_DOMAIN
class nl.crolox.labelscout.domain.Apotheek
class nl.crolox.labelscout.domain.Logger
enum nl.crolox.labelscout.domain.AdviceSource{
  CGM
  PHARMACOM
  ZOEKENZOEK
}
class nl.crolox.labelscout.domain.RequestResponseAudit
class nl.crolox.labelscout.domain.Label
class nl.crolox.labelscout.domain.Gebruiker
class nl.crolox.labelscout.domain.Groep
class nl.crolox.labelscout.domain.VoorraadCluster
class nl.crolox.labelscout.domain.AuditLog
class nl.crolox.labelscout.domain.Groothandel
class nl.crolox.labelscout.domain.ApotheekGroep
class nl.crolox.labelscout.domain.GroothandelVoorraad
enum nl.crolox.labelscout.domain.Gebruiker$USERROLE{
  ADMIN
  USER
  GROUPOWNER
}
class nl.crolox.labelscout.domain.Product

!endsub

!startsub NL_CROLOX_LABELSCOUT_HELPER
class nl.crolox.labelscout.helper.AdviceHelperRespone
class nl.crolox.labelscout.helper.AuditHelperResponseCandidateLine
class nl.crolox.labelscout.helper.PreferentieClusterResponse$EmbeddedData
class nl.crolox.labelscout.helper.AdviceHelperCGMRequest
class nl.crolox.labelscout.helper.Product
class nl.crolox.labelscout.helper.ApotheekCache
class nl.crolox.labelscout.helper.GroothandelVoorraadStatus
class nl.crolox.labelscout.helper.AdviceHelperRequest
class nl.crolox.labelscout.helper.AdviceHelperCGMRespone
class nl.crolox.labelscout.helper.ProductResponse
class nl.crolox.labelscout.helper.ProductKeuze
class nl.crolox.labelscout.helper.Product$ProductPrice
class nl.crolox.labelscout.helper.OrderUpdateRequest
class nl.crolox.labelscout.helper.PreferentieClusterResponse$PreferentieClusterData
class nl.crolox.labelscout.helper.VoorraadResponse
class nl.crolox.labelscout.helper.LabelHelper
class nl.crolox.labelscout.helper.ZoekRequestHelper
class nl.crolox.labelscout.helper.AuditHelperResponse
class nl.crolox.labelscout.helper.BulkVoorraadCheckResponse
class nl.crolox.labelscout.helper.GenericAdviceHelperRespone
class nl.crolox.labelscout.helper.AdviceHelperResponeLine
class nl.crolox.labelscout.helper.ProductResponse$EmbeddedProducts
class nl.crolox.labelscout.helper.ApotheekHelper
class nl.crolox.labelscout.helper.GroepHelper
class nl.crolox.labelscout.helper.BulkVoorraadCheckRequest
class nl.crolox.labelscout.helper.GenericAdviceHelperRequest
class nl.crolox.labelscout.helper.ApothekenHelperResponse
class nl.crolox.labelscout.helper.PreferentieClusterResponse
class nl.crolox.labelscout.helper.VoorraadCheckResponse
class nl.crolox.labelscout.helper.ZoekResponseHelper
class nl.crolox.labelscout.helper.AuditHelperRequest
class nl.crolox.labelscout.helper.AuditHelperResponseLine
class nl.crolox.labelscout.helper.VoorraadCheckRequest

!endsub

!startsub NL_CROLOX_LABELSCOUT_INTERCEPTOR
class nl.crolox.labelscout.interceptor.DaoInterceptor

!endsub

!startsub NL_CROLOX_LABELSCOUT_REPOSITORY
interface nl.crolox.labelscout.repository.GroothandelRepository
interface nl.crolox.labelscout.repository.LabelRepository
interface nl.crolox.labelscout.repository.RequestResponseAuditRepository
interface nl.crolox.labelscout.repository.ApotheekGroepRepository
interface nl.crolox.labelscout.repository.GroepRepository
interface nl.crolox.labelscout.repository.GroothandelVoorraadRepository
interface nl.crolox.labelscout.repository.ProductRepository
interface nl.crolox.labelscout.repository.GebruikerRepository
interface nl.crolox.labelscout.repository.LoggerRepository
interface nl.crolox.labelscout.repository.AuditLogRepository
interface nl.crolox.labelscout.repository.VoorraadClusterRepository
interface nl.crolox.labelscout.repository.ApotheekRepository

!endsub

!startsub NL_CROLOX_LABELSCOUT_SERVICE
class nl.crolox.labelscout.service.LabelscoutServiceV1
class nl.crolox.labelscout.service.DataWareHouseAPIServiceV1
class nl.crolox.labelscout.service.ProductAdviesService
class nl.crolox.labelscout.service.ProductAdviesService$PreferentieClusterResponse$Embedded
class nl.crolox.labelscout.service.VoorraadVerwerkingService
class nl.crolox.labelscout.service.ProductAdviesService$PreferentieClusterResponse
class nl.crolox.labelscout.service.ProductAdviesService$PreferentieClusterResponse$PreferentieCluster

!endsub

!startsub NL_CROLOX_LABELSCOUT_WEB
class nl.crolox.labelscout.web.ApotheekVoorraadRestController
class nl.crolox.labelscout.web.HomeController
class nl.crolox.labelscout.web.Utils
class nl.crolox.labelscout.web.ZoekController
class nl.crolox.labelscout.web.AdminPagesController

!endsub

' INHERITANCES =======

!startsub INHERITANCES_NL_CROLOX_LABELSCOUT

!endsub


!startsub INHERITANCES_NL_CROLOX_LABELSCOUT_ASPECT

!endsub


!startsub INHERITANCES_NL_CROLOX_LABELSCOUT_DOMAIN
java.lang.Enum <|-- nl.crolox.labelscout.domain.AdviceSource
java.lang.Enum <|-- nl.crolox.labelscout.domain.Gebruiker$USERROLE

!endsub


!startsub INHERITANCES_NL_CROLOX_LABELSCOUT_HELPER

!endsub


!startsub INHERITANCES_NL_CROLOX_LABELSCOUT_INTERCEPTOR

!endsub


!startsub INHERITANCES_NL_CROLOX_LABELSCOUT_REPOSITORY

!endsub


!startsub INHERITANCES_NL_CROLOX_LABELSCOUT_SERVICE

!endsub


!startsub INHERITANCES_NL_CROLOX_LABELSCOUT_WEB

!endsub

' IMPLEMENT INTERFACE =======

!startsub IMPLEMENTS_NL_CROLOX_LABELSCOUT

!endsub


!startsub IMPLEMENTS_NL_CROLOX_LABELSCOUT_ASPECT
java.lang.annotation.Annotation <|.. nl.crolox.labelscout.aspect.Loggable

!endsub


!startsub IMPLEMENTS_NL_CROLOX_LABELSCOUT_DOMAIN

!endsub


!startsub IMPLEMENTS_NL_CROLOX_LABELSCOUT_HELPER

!endsub


!startsub IMPLEMENTS_NL_CROLOX_LABELSCOUT_INTERCEPTOR

!endsub


!startsub IMPLEMENTS_NL_CROLOX_LABELSCOUT_REPOSITORY

!endsub


!startsub IMPLEMENTS_NL_CROLOX_LABELSCOUT_SERVICE
nl.crolox.labelscout.Constants <|.. nl.crolox.labelscout.service.LabelscoutServiceV1

!endsub


!startsub IMPLEMENTS_NL_CROLOX_LABELSCOUT_WEB
nl.crolox.labelscout.Constants <|.. nl.crolox.labelscout.web.ZoekController

!endsub

' FIELDS =======

!startsub FIELDS_NL_CROLOX_LABELSCOUT
nl.crolox.labelscout.GlobalUtils --> nl.crolox.labelscout.web.Utils
nl.crolox.labelscout.SecurityConfig --> nl.crolox.labelscout.KeycloakLogoutHandler

!endsub


!startsub FIELDS_NL_CROLOX_LABELSCOUT_ASPECT

!endsub


!startsub FIELDS_NL_CROLOX_LABELSCOUT_DOMAIN
nl.crolox.labelscout.domain.Apotheek --> nl.crolox.labelscout.domain.VoorraadCluster
nl.crolox.labelscout.domain.Apotheek --> nl.crolox.labelscout.domain.ApotheekGroep
nl.crolox.labelscout.domain.Apotheek --> nl.crolox.labelscout.domain.Groep
nl.crolox.labelscout.domain.Logger --> nl.crolox.labelscout.domain.Apotheek
nl.crolox.labelscout.domain.Label --> nl.crolox.labelscout.domain.Groep
nl.crolox.labelscout.domain.Gebruiker --> nl.crolox.labelscout.domain.Gebruiker$USERROLE
nl.crolox.labelscout.domain.Gebruiker --> nl.crolox.labelscout.domain.ApotheekGroep
nl.crolox.labelscout.domain.Gebruiker --> nl.crolox.labelscout.domain.Apotheek
nl.crolox.labelscout.domain.Groep --> nl.crolox.labelscout.domain.ApotheekGroep
nl.crolox.labelscout.domain.Groep --> nl.crolox.labelscout.domain.Groothandel
nl.crolox.labelscout.domain.AuditLog --> nl.crolox.labelscout.domain.Gebruiker
nl.crolox.labelscout.domain.GroothandelVoorraad --> nl.crolox.labelscout.domain.Groothandel
nl.crolox.labelscout.domain.Product --> nl.crolox.labelscout.domain.Label

!endsub


!startsub FIELDS_NL_CROLOX_LABELSCOUT_HELPER
nl.crolox.labelscout.helper.PreferentieClusterResponse$EmbeddedData --> nl.crolox.labelscout.helper.PreferentieClusterResponse$PreferentieClusterData
nl.crolox.labelscout.helper.Product --> nl.crolox.labelscout.helper.Product$ProductPrice
nl.crolox.labelscout.helper.ApotheekCache --> nl.crolox.labelscout.repository.ApotheekRepository
nl.crolox.labelscout.helper.ProductResponse --> nl.crolox.labelscout.helper.ProductResponse$EmbeddedProducts
nl.crolox.labelscout.helper.ProductKeuze --> nl.crolox.labelscout.helper.Product
nl.crolox.labelscout.helper.AuditHelperResponse --> nl.crolox.labelscout.domain.AdviceSource
nl.crolox.labelscout.helper.ProductResponse$EmbeddedProducts --> nl.crolox.labelscout.helper.Product
nl.crolox.labelscout.helper.GenericAdviceHelperRequest --> nl.crolox.labelscout.GlobalUtils
nl.crolox.labelscout.helper.PreferentieClusterResponse --> nl.crolox.labelscout.helper.PreferentieClusterResponse$EmbeddedData
nl.crolox.labelscout.helper.ZoekResponseHelper --> nl.crolox.labelscout.helper.Product
nl.crolox.labelscout.helper.AuditHelperRequest --> nl.crolox.labelscout.domain.AdviceSource
nl.crolox.labelscout.helper.AuditHelperResponseLine --> nl.crolox.labelscout.helper.AuditHelperResponseCandidateLine

!endsub


!startsub FIELDS_NL_CROLOX_LABELSCOUT_INTERCEPTOR

!endsub


!startsub FIELDS_NL_CROLOX_LABELSCOUT_REPOSITORY

!endsub


!startsub FIELDS_NL_CROLOX_LABELSCOUT_SERVICE
nl.crolox.labelscout.service.LabelscoutServiceV1 --> nl.crolox.labelscout.repository.ApotheekRepository
nl.crolox.labelscout.service.LabelscoutServiceV1 --> nl.crolox.labelscout.service.ProductAdviesService
nl.crolox.labelscout.service.LabelscoutServiceV1 --> nl.crolox.labelscout.repository.AuditLogRepository
nl.crolox.labelscout.service.LabelscoutServiceV1 --> nl.crolox.labelscout.repository.RequestResponseAuditRepository
nl.crolox.labelscout.service.LabelscoutServiceV1 --> nl.crolox.labelscout.web.Utils
nl.crolox.labelscout.service.LabelscoutServiceV1 --> nl.crolox.labelscout.GlobalUtils
nl.crolox.labelscout.service.DataWareHouseAPIServiceV1 --> nl.crolox.labelscout.repository.RequestResponseAuditRepository
nl.crolox.labelscout.service.DataWareHouseAPIServiceV1 --> nl.crolox.labelscout.repository.ApotheekRepository
nl.crolox.labelscout.service.DataWareHouseAPIServiceV1 --> nl.crolox.labelscout.helper.ApotheekCache
nl.crolox.labelscout.service.ProductAdviesService --> nl.crolox.labelscout.repository.GroothandelVoorraadRepository
nl.crolox.labelscout.service.ProductAdviesService --> nl.crolox.labelscout.repository.LabelRepository
nl.crolox.labelscout.service.ProductAdviesService --> nl.crolox.labelscout.repository.ProductRepository
nl.crolox.labelscout.service.VoorraadVerwerkingService --> nl.crolox.labelscout.repository.GroothandelRepository
nl.crolox.labelscout.service.VoorraadVerwerkingService --> nl.crolox.labelscout.repository.GroothandelVoorraadRepository
nl.crolox.labelscout.service.VoorraadVerwerkingService --> nl.crolox.labelscout.GlobalUtils
nl.crolox.labelscout.service.ProductAdviesService$PreferentieClusterResponse --> nl.crolox.labelscout.service.ProductAdviesService$PreferentieClusterResponse$Embedded

!endsub


!startsub FIELDS_NL_CROLOX_LABELSCOUT_WEB
nl.crolox.labelscout.web.ApotheekVoorraadRestController --> nl.crolox.labelscout.repository.ApotheekRepository
nl.crolox.labelscout.web.ApotheekVoorraadRestController --> nl.crolox.labelscout.repository.GroothandelVoorraadRepository
nl.crolox.labelscout.web.HomeController --> nl.crolox.labelscout.repository.GebruikerRepository
nl.crolox.labelscout.web.HomeController --> nl.crolox.labelscout.web.Utils
nl.crolox.labelscout.web.Utils --> nl.crolox.labelscout.repository.GebruikerRepository
nl.crolox.labelscout.web.ZoekController --> nl.crolox.labelscout.service.ProductAdviesService
nl.crolox.labelscout.web.ZoekController --> nl.crolox.labelscout.repository.ApotheekRepository
nl.crolox.labelscout.web.ZoekController --> nl.crolox.labelscout.repository.AuditLogRepository
nl.crolox.labelscout.web.ZoekController --> nl.crolox.labelscout.repository.RequestResponseAuditRepository
nl.crolox.labelscout.web.ZoekController --> nl.crolox.labelscout.web.Utils
nl.crolox.labelscout.web.ZoekController --> nl.crolox.labelscout.GlobalUtils
nl.crolox.labelscout.web.AdminPagesController --> nl.crolox.labelscout.repository.GebruikerRepository
nl.crolox.labelscout.web.AdminPagesController --> nl.crolox.labelscout.repository.ApotheekGroepRepository
nl.crolox.labelscout.web.AdminPagesController --> nl.crolox.labelscout.repository.ApotheekRepository
nl.crolox.labelscout.web.AdminPagesController --> nl.crolox.labelscout.repository.GroothandelRepository
nl.crolox.labelscout.web.AdminPagesController --> nl.crolox.labelscout.repository.GroepRepository
nl.crolox.labelscout.web.AdminPagesController --> nl.crolox.labelscout.repository.LabelRepository
nl.crolox.labelscout.web.AdminPagesController --> nl.crolox.labelscout.repository.ProductRepository
nl.crolox.labelscout.web.AdminPagesController --> nl.crolox.labelscout.repository.VoorraadClusterRepository
nl.crolox.labelscout.web.AdminPagesController --> nl.crolox.labelscout.web.Utils

!endsub

' USES =======

!startsub USES_NL_CROLOX_LABELSCOUT
nl.crolox.labelscout.GlobalUtils ..> nl.crolox.labelscout.domain.AdviceSource
nl.crolox.labelscout.GlobalUtils ..> nl.crolox.labelscout.domain.RequestResponseAudit
nl.crolox.labelscout.GlobalUtils ..> nl.crolox.labelscout.helper.GenericAdviceHelperRequest
nl.crolox.labelscout.GlobalUtils ..> nl.crolox.labelscout.helper.GenericAdviceHelperRespone
nl.crolox.labelscout.SecurityConfig ..> nl.crolox.labelscout.KeycloakLogoutHandler
nl.crolox.labelscout.OpenApiConfig ..> io.swagger.v3.oas.models.OpenAPI

!endsub


!startsub USES_NL_CROLOX_LABELSCOUT_ASPECT

!endsub


!startsub USES_NL_CROLOX_LABELSCOUT_DOMAIN
nl.crolox.labelscout.domain.Apotheek ..> nl.crolox.labelscout.domain.VoorraadCluster
nl.crolox.labelscout.domain.Apotheek ..> nl.crolox.labelscout.domain.ApotheekGroep
nl.crolox.labelscout.domain.Apotheek ..> nl.crolox.labelscout.domain.Groep
nl.crolox.labelscout.domain.Logger ..> nl.crolox.labelscout.domain.Apotheek
nl.crolox.labelscout.domain.Label ..> nl.crolox.labelscout.domain.Groep
nl.crolox.labelscout.domain.Gebruiker ..> nl.crolox.labelscout.domain.Gebruiker$USERROLE
nl.crolox.labelscout.domain.Gebruiker ..> nl.crolox.labelscout.domain.ApotheekGroep
nl.crolox.labelscout.domain.Gebruiker ..> nl.crolox.labelscout.domain.Apotheek
nl.crolox.labelscout.domain.Groep ..> nl.crolox.labelscout.domain.ApotheekGroep
nl.crolox.labelscout.domain.Groep ..> nl.crolox.labelscout.domain.Groothandel
nl.crolox.labelscout.domain.AuditLog ..> nl.crolox.labelscout.domain.Gebruiker
nl.crolox.labelscout.domain.GroothandelVoorraad ..> nl.crolox.labelscout.domain.Groothandel
nl.crolox.labelscout.domain.Product ..> nl.crolox.labelscout.domain.Label

!endsub


!startsub USES_NL_CROLOX_LABELSCOUT_HELPER
nl.crolox.labelscout.helper.PreferentieClusterResponse$EmbeddedData ..> nl.crolox.labelscout.helper.PreferentieClusterResponse$PreferentieClusterData
nl.crolox.labelscout.helper.Product ..> nl.crolox.labelscout.helper.Product$ProductPrice
nl.crolox.labelscout.helper.ApotheekCache ..> nl.crolox.labelscout.domain.Apotheek
nl.crolox.labelscout.helper.ApotheekCache ..> nl.crolox.labelscout.repository.ApotheekRepository
nl.crolox.labelscout.helper.ProductResponse ..> nl.crolox.labelscout.helper.ProductResponse$EmbeddedProducts
nl.crolox.labelscout.helper.ProductKeuze ..> nl.crolox.labelscout.helper.Product
nl.crolox.labelscout.helper.AuditHelperResponse ..> nl.crolox.labelscout.domain.AdviceSource
nl.crolox.labelscout.helper.GenericAdviceHelperRespone ..> nl.crolox.labelscout.helper.AdviceHelperRespone
nl.crolox.labelscout.helper.GenericAdviceHelperRespone ..> nl.crolox.labelscout.helper.AdviceHelperCGMRespone
nl.crolox.labelscout.helper.ProductResponse$EmbeddedProducts ..> nl.crolox.labelscout.helper.Product
nl.crolox.labelscout.helper.ApotheekHelper ..> nl.crolox.labelscout.domain.Apotheek
nl.crolox.labelscout.helper.GenericAdviceHelperRequest ..> nl.crolox.labelscout.helper.AdviceHelperCGMRequest
nl.crolox.labelscout.helper.GenericAdviceHelperRequest ..> nl.crolox.labelscout.helper.AdviceHelperRequest
nl.crolox.labelscout.helper.GenericAdviceHelperRequest ..> nl.crolox.labelscout.helper.ZoekRequestHelper
nl.crolox.labelscout.helper.GenericAdviceHelperRequest ..> nl.crolox.labelscout.GlobalUtils
nl.crolox.labelscout.helper.PreferentieClusterResponse ..> nl.crolox.labelscout.helper.PreferentieClusterResponse$EmbeddedData
nl.crolox.labelscout.helper.ZoekResponseHelper ..> nl.crolox.labelscout.helper.Product
nl.crolox.labelscout.helper.AuditHelperRequest ..> nl.crolox.labelscout.domain.AdviceSource
nl.crolox.labelscout.helper.AuditHelperResponseLine ..> nl.crolox.labelscout.domain.RequestResponseAudit
nl.crolox.labelscout.helper.AuditHelperResponseLine ..> nl.crolox.labelscout.domain.Apotheek
nl.crolox.labelscout.helper.AuditHelperResponseLine ..> nl.crolox.labelscout.helper.AuditHelperResponseCandidateLine

!endsub


!startsub USES_NL_CROLOX_LABELSCOUT_INTERCEPTOR

!endsub


!startsub USES_NL_CROLOX_LABELSCOUT_REPOSITORY
nl.crolox.labelscout.repository.LabelRepository ..> nl.crolox.labelscout.domain.Groep
nl.crolox.labelscout.repository.GroepRepository ..> nl.crolox.labelscout.domain.ApotheekGroep
nl.crolox.labelscout.repository.GroothandelVoorraadRepository ..> nl.crolox.labelscout.domain.Groothandel
nl.crolox.labelscout.repository.ProductRepository ..> nl.crolox.labelscout.domain.Label
nl.crolox.labelscout.repository.GebruikerRepository ..> nl.crolox.labelscout.domain.Gebruiker
nl.crolox.labelscout.repository.ApotheekRepository ..> nl.crolox.labelscout.domain.Apotheek

!endsub


!startsub USES_NL_CROLOX_LABELSCOUT_SERVICE
nl.crolox.labelscout.service.LabelscoutServiceV1 ..> nl.crolox.labelscout.helper.AdviceHelperRequest
nl.crolox.labelscout.service.LabelscoutServiceV1 ..> nl.crolox.labelscout.helper.AdviceHelperCGMRequest
nl.crolox.labelscout.service.LabelscoutServiceV1 ..> nl.crolox.labelscout.helper.GenericAdviceHelperRespone
nl.crolox.labelscout.service.LabelscoutServiceV1 ..> nl.crolox.labelscout.helper.GenericAdviceHelperRequest
nl.crolox.labelscout.service.LabelscoutServiceV1 ..> nl.crolox.labelscout.domain.AdviceSource
nl.crolox.labelscout.service.LabelscoutServiceV1 ..> nl.crolox.labelscout.domain.Apotheek
nl.crolox.labelscout.service.LabelscoutServiceV1 ..> nl.crolox.labelscout.helper.Product
nl.crolox.labelscout.service.LabelscoutServiceV1 ..> nl.crolox.labelscout.repository.ApotheekRepository
nl.crolox.labelscout.service.LabelscoutServiceV1 ..> nl.crolox.labelscout.service.ProductAdviesService
nl.crolox.labelscout.service.LabelscoutServiceV1 ..> nl.crolox.labelscout.repository.AuditLogRepository
nl.crolox.labelscout.service.LabelscoutServiceV1 ..> nl.crolox.labelscout.repository.RequestResponseAuditRepository
nl.crolox.labelscout.service.LabelscoutServiceV1 ..> nl.crolox.labelscout.helper.AdviceHelperResponeLine
nl.crolox.labelscout.service.LabelscoutServiceV1 ..> nl.crolox.labelscout.helper.ProductKeuze
nl.crolox.labelscout.service.DataWareHouseAPIServiceV1 ..> nl.crolox.labelscout.helper.AuditHelperResponse
nl.crolox.labelscout.service.DataWareHouseAPIServiceV1 ..> nl.crolox.labelscout.repository.RequestResponseAuditRepository
nl.crolox.labelscout.service.DataWareHouseAPIServiceV1 ..> nl.crolox.labelscout.repository.ApotheekRepository
nl.crolox.labelscout.service.DataWareHouseAPIServiceV1 ..> nl.crolox.labelscout.helper.ApotheekCache
nl.crolox.labelscout.service.DataWareHouseAPIServiceV1 ..> nl.crolox.labelscout.helper.ApothekenHelperResponse
nl.crolox.labelscout.service.DataWareHouseAPIServiceV1 ..> nl.crolox.labelscout.domain.Apotheek
nl.crolox.labelscout.service.ProductAdviesService ..> nl.crolox.labelscout.helper.Product
nl.crolox.labelscout.service.ProductAdviesService ..> nl.crolox.labelscout.domain.Groothandel
nl.crolox.labelscout.service.ProductAdviesService ..> nl.crolox.labelscout.domain.Groep
nl.crolox.labelscout.service.ProductAdviesService ..> nl.crolox.labelscout.helper.ProductKeuze
nl.crolox.labelscout.service.ProductAdviesService ..> nl.crolox.labelscout.domain.Label
nl.crolox.labelscout.service.ProductAdviesService ..> nl.crolox.labelscout.helper.Product$ProductPrice
nl.crolox.labelscout.service.VoorraadVerwerkingService ..> nl.crolox.labelscout.repository.GroothandelRepository
nl.crolox.labelscout.service.VoorraadVerwerkingService ..> nl.crolox.labelscout.repository.GroothandelVoorraadRepository
nl.crolox.labelscout.service.VoorraadVerwerkingService ..> nl.crolox.labelscout.domain.Groothandel
nl.crolox.labelscout.service.ProductAdviesService$PreferentieClusterResponse ..> nl.crolox.labelscout.service.ProductAdviesService$PreferentieClusterResponse$Embedded

!endsub


!startsub USES_NL_CROLOX_LABELSCOUT_WEB
nl.crolox.labelscout.web.ApotheekVoorraadRestController ..> nl.crolox.labelscout.helper.VoorraadCheckRequest
nl.crolox.labelscout.web.ApotheekVoorraadRestController ..> nl.crolox.labelscout.helper.BulkVoorraadCheckRequest
nl.crolox.labelscout.web.ApotheekVoorraadRestController ..> nl.crolox.labelscout.repository.ApotheekRepository
nl.crolox.labelscout.web.ApotheekVoorraadRestController ..> nl.crolox.labelscout.repository.GroothandelVoorraadRepository
nl.crolox.labelscout.web.ApotheekVoorraadRestController ..> nl.crolox.labelscout.domain.Groothandel
nl.crolox.labelscout.web.ApotheekVoorraadRestController ..> nl.crolox.labelscout.domain.Apotheek
nl.crolox.labelscout.web.Utils ..> nl.crolox.labelscout.domain.Gebruiker$USERROLE
nl.crolox.labelscout.web.Utils ..> nl.crolox.labelscout.domain.Gebruiker
nl.crolox.labelscout.web.ZoekController ..> nl.crolox.labelscout.service.ProductAdviesService
nl.crolox.labelscout.web.ZoekController ..> nl.crolox.labelscout.repository.ApotheekRepository
nl.crolox.labelscout.web.ZoekController ..> nl.crolox.labelscout.repository.AuditLogRepository
nl.crolox.labelscout.web.ZoekController ..> nl.crolox.labelscout.repository.RequestResponseAuditRepository
nl.crolox.labelscout.web.ZoekController ..> nl.crolox.labelscout.helper.AdviceHelperResponeLine
nl.crolox.labelscout.web.ZoekController ..> nl.crolox.labelscout.helper.ProductKeuze
nl.crolox.labelscout.web.AdminPagesController ..> nl.crolox.labelscout.helper.ApotheekHelper
nl.crolox.labelscout.web.AdminPagesController ..> nl.crolox.labelscout.domain.ApotheekGroep
nl.crolox.labelscout.web.AdminPagesController ..> nl.crolox.labelscout.helper.LabelHelper
nl.crolox.labelscout.web.AdminPagesController ..> nl.crolox.labelscout.helper.GroepHelper
nl.crolox.labelscout.web.AdminPagesController ..> nl.crolox.labelscout.helper.OrderUpdateRequest

!endsub

' IMPORTS =======
' Java Files Path : /Users/paolobrunasti/IdeaProjects/OCTA/labelscout/src/main/java/

!startsub IMPORTS_NL_CROLOX_LABELSCOUT
' nl.crolox.labelscout.KeycloakLogoutHandler
nl.crolox.labelscout.KeycloakLogoutHandler ..o nl.crolox.labelscout.aspect.Loggable

' nl.crolox.labelscout.GlobalUtils
nl.crolox.labelscout.GlobalUtils ..o nl.crolox.labelscout.domain.AdviceSource
nl.crolox.labelscout.GlobalUtils ..o nl.crolox.labelscout.domain.RequestResponseAudit
nl.crolox.labelscout.GlobalUtils ..o nl.crolox.labelscout.helper.Product
nl.crolox.labelscout.GlobalUtils ..o nl.crolox.labelscout.web.Utils
nl.crolox.labelscout.GlobalUtils ..o nl.crolox.labelscout.helper.GenericAdviceHelperRespone
nl.crolox.labelscout.GlobalUtils ..o nl.crolox.labelscout.helper.GenericAdviceHelperRequest
nl.crolox.labelscout.GlobalUtils ..o nl.crolox.labelscout.helper.AdviceHelperResponeLine

' nl.crolox.labelscout.LabelscoutApplication

' nl.crolox.labelscout.SecurityConfig

' nl.crolox.labelscout.OpenApiConfig
nl.crolox.labelscout.OpenApiConfig ..o io.swagger.v3.oas.models.info.Contact
nl.crolox.labelscout.OpenApiConfig ..o io.swagger.v3.oas.models.OpenAPI
nl.crolox.labelscout.OpenApiConfig ..o io.swagger.v3.oas.models.info.Info

' nl.crolox.labelscout.Constants

' nl.crolox.labelscout.OpenApiConfig

' nl.crolox.labelscout.GlobalUtils

' nl.crolox.labelscout.SecurityConfig

' nl.crolox.labelscout.KeycloakLogoutHandler

' nl.crolox.labelscout.LabelscoutApplication

' nl.crolox.labelscout.Constants


!endsub


!startsub IMPORTS_NL_CROLOX_LABELSCOUT_ASPECT
' nl.crolox.labelscout.aspect.Loggable

' nl.crolox.labelscout.aspect.LoggingAspect

' nl.crolox.labelscout.aspect.Loggable

' nl.crolox.labelscout.aspect.LoggingAspect


!endsub


!startsub IMPORTS_NL_CROLOX_LABELSCOUT_DOMAIN
' nl.crolox.labelscout.domain.Apotheek

' nl.crolox.labelscout.domain.Logger

' nl.crolox.labelscout.domain.AdviceSource

' nl.crolox.labelscout.domain.RequestResponseAudit

' nl.crolox.labelscout.domain.Label

' nl.crolox.labelscout.domain.Gebruiker

' nl.crolox.labelscout.domain.Groep

' nl.crolox.labelscout.domain.VoorraadCluster

' nl.crolox.labelscout.domain.AuditLog

' nl.crolox.labelscout.domain.Groothandel

' nl.crolox.labelscout.domain.ApotheekGroep

' nl.crolox.labelscout.domain.GroothandelVoorraad

' nl.crolox.labelscout.domain.Gebruiker$USERROLE

' nl.crolox.labelscout.domain.Product

' nl.crolox.labelscout.domain.Apotheek

' nl.crolox.labelscout.domain.AuditLog

' nl.crolox.labelscout.domain.Label

' nl.crolox.labelscout.domain.ApotheekGroep

' nl.crolox.labelscout.domain.Gebruiker

' nl.crolox.labelscout.domain.Product

' nl.crolox.labelscout.domain.GroothandelVoorraad

' nl.crolox.labelscout.domain.RequestResponseAudit

' nl.crolox.labelscout.domain.Groothandel

' nl.crolox.labelscout.domain.Gebruiker$USERROLE

' nl.crolox.labelscout.domain.VoorraadCluster

' nl.crolox.labelscout.domain.AdviceSource

' nl.crolox.labelscout.domain.Groep

' nl.crolox.labelscout.domain.Logger


!endsub


!startsub IMPORTS_NL_CROLOX_LABELSCOUT_HELPER
' nl.crolox.labelscout.helper.AdviceHelperRespone

' nl.crolox.labelscout.helper.AuditHelperResponseCandidateLine
nl.crolox.labelscout.helper.AuditHelperResponseCandidateLine ..o nl.crolox.labelscout.domain.RequestResponseAudit

' nl.crolox.labelscout.helper.PreferentieClusterResponse$EmbeddedData

' nl.crolox.labelscout.helper.AdviceHelperCGMRequest

' nl.crolox.labelscout.helper.Product

' nl.crolox.labelscout.helper.ApotheekCache
nl.crolox.labelscout.helper.ApotheekCache ..o nl.crolox.labelscout.repository.ApotheekRepository
nl.crolox.labelscout.helper.ApotheekCache ..o nl.crolox.labelscout.domain.Apotheek

' nl.crolox.labelscout.helper.GroothandelVoorraadStatus

' nl.crolox.labelscout.helper.AdviceHelperRequest

' nl.crolox.labelscout.helper.AdviceHelperCGMRespone

' nl.crolox.labelscout.helper.ProductResponse

' nl.crolox.labelscout.helper.ProductKeuze
nl.crolox.labelscout.helper.ProductKeuze ..o nl.crolox.labelscout.repository.ProductRepository
nl.crolox.labelscout.helper.ProductKeuze ..o nl.crolox.labelscout.domain.Groep
nl.crolox.labelscout.helper.ProductKeuze ..o nl.crolox.labelscout.repository.LabelRepository
nl.crolox.labelscout.helper.ProductKeuze ..o nl.crolox.labelscout.domain.Label

' nl.crolox.labelscout.helper.Product$ProductPrice

' nl.crolox.labelscout.helper.OrderUpdateRequest

' nl.crolox.labelscout.helper.PreferentieClusterResponse$PreferentieClusterData

' nl.crolox.labelscout.helper.VoorraadResponse

' nl.crolox.labelscout.helper.LabelHelper

' nl.crolox.labelscout.helper.ZoekRequestHelper

' nl.crolox.labelscout.helper.AuditHelperResponse
nl.crolox.labelscout.helper.AuditHelperResponse ..o nl.crolox.labelscout.domain.AdviceSource

' nl.crolox.labelscout.helper.BulkVoorraadCheckResponse

' nl.crolox.labelscout.helper.GenericAdviceHelperRespone

' nl.crolox.labelscout.helper.AdviceHelperResponeLine

' nl.crolox.labelscout.helper.ProductResponse$EmbeddedProducts

' nl.crolox.labelscout.helper.ApotheekHelper
nl.crolox.labelscout.helper.ApotheekHelper ..o nl.crolox.labelscout.domain.Apotheek

' nl.crolox.labelscout.helper.GroepHelper

' nl.crolox.labelscout.helper.BulkVoorraadCheckRequest

' nl.crolox.labelscout.helper.GenericAdviceHelperRequest

' nl.crolox.labelscout.helper.ApothekenHelperResponse

' nl.crolox.labelscout.helper.PreferentieClusterResponse

' nl.crolox.labelscout.helper.VoorraadCheckResponse

' nl.crolox.labelscout.helper.ZoekResponseHelper

' nl.crolox.labelscout.helper.AuditHelperRequest
nl.crolox.labelscout.helper.AuditHelperRequest ..o nl.crolox.labelscout.domain.AdviceSource

' nl.crolox.labelscout.helper.AuditHelperResponseLine
nl.crolox.labelscout.helper.AuditHelperResponseLine ..o nl.crolox.labelscout.domain.Apotheek
nl.crolox.labelscout.helper.AuditHelperResponseLine ..o nl.crolox.labelscout.domain.RequestResponseAudit

' nl.crolox.labelscout.helper.VoorraadCheckRequest

' nl.crolox.labelscout.helper.GroepHelper

' nl.crolox.labelscout.helper.ProductResponse

' nl.crolox.labelscout.helper.ProductKeuze

' nl.crolox.labelscout.helper.ZoekResponseHelper

' nl.crolox.labelscout.helper.GenericAdviceHelperRespone

' nl.crolox.labelscout.helper.AdviceHelperRequest

' nl.crolox.labelscout.helper.VoorraadCheckRequest

' nl.crolox.labelscout.helper.LabelHelper

' nl.crolox.labelscout.helper.PreferentieClusterResponse

' nl.crolox.labelscout.helper.AdviceHelperCGMRequest

' nl.crolox.labelscout.helper.PreferentieClusterResponse$EmbeddedData

' nl.crolox.labelscout.helper.AuditHelperResponseCandidateLine

' nl.crolox.labelscout.helper.GenericAdviceHelperRequest

' nl.crolox.labelscout.helper.BulkVoorraadCheckResponse

' nl.crolox.labelscout.helper.AdviceHelperResponeLine

' nl.crolox.labelscout.helper.ZoekRequestHelper

' nl.crolox.labelscout.helper.AuditHelperResponse

' nl.crolox.labelscout.helper.VoorraadCheckResponse

' nl.crolox.labelscout.helper.PreferentieClusterResponse$PreferentieClusterData

' nl.crolox.labelscout.helper.AdviceHelperCGMRespone

' nl.crolox.labelscout.helper.BulkVoorraadCheckRequest

' nl.crolox.labelscout.helper.AuditHelperRequest

' nl.crolox.labelscout.helper.ProductResponse$EmbeddedProducts

' nl.crolox.labelscout.helper.ApothekenHelperResponse

' nl.crolox.labelscout.helper.VoorraadResponse

' nl.crolox.labelscout.helper.GroothandelVoorraadStatus

' nl.crolox.labelscout.helper.ApotheekCache

' nl.crolox.labelscout.helper.OrderUpdateRequest

' nl.crolox.labelscout.helper.AuditHelperResponseLine

' nl.crolox.labelscout.helper.Product

' nl.crolox.labelscout.helper.Product$ProductPrice

' nl.crolox.labelscout.helper.ApotheekHelper

' nl.crolox.labelscout.helper.AdviceHelperRespone


!endsub


!startsub IMPORTS_NL_CROLOX_LABELSCOUT_INTERCEPTOR
' nl.crolox.labelscout.interceptor.DaoInterceptor

' nl.crolox.labelscout.interceptor.DaoInterceptor


!endsub


!startsub IMPORTS_NL_CROLOX_LABELSCOUT_REPOSITORY
' nl.crolox.labelscout.repository.GroothandelRepository
nl.crolox.labelscout.repository.GroothandelRepository ..o nl.crolox.labelscout.domain.VoorraadCluster
nl.crolox.labelscout.repository.GroothandelRepository ..o nl.crolox.labelscout.domain.Groothandel

' nl.crolox.labelscout.repository.LabelRepository

' nl.crolox.labelscout.repository.RequestResponseAuditRepository
nl.crolox.labelscout.repository.RequestResponseAuditRepository ..o nl.crolox.labelscout.domain.RequestResponseAudit

' nl.crolox.labelscout.repository.ApotheekGroepRepository
nl.crolox.labelscout.repository.ApotheekGroepRepository ..o nl.crolox.labelscout.domain.ApotheekGroep
nl.crolox.labelscout.repository.ApotheekGroepRepository ..o nl.crolox.labelscout.domain.VoorraadCluster

' nl.crolox.labelscout.repository.GroepRepository
nl.crolox.labelscout.repository.GroepRepository ..o nl.crolox.labelscout.domain.ApotheekGroep
nl.crolox.labelscout.repository.GroepRepository ..o nl.crolox.labelscout.domain.Groep

' nl.crolox.labelscout.repository.GroothandelVoorraadRepository
nl.crolox.labelscout.repository.GroothandelVoorraadRepository ..o nl.crolox.labelscout.domain.GroothandelVoorraad
nl.crolox.labelscout.repository.GroothandelVoorraadRepository ..o nl.crolox.labelscout.domain.VoorraadCluster
nl.crolox.labelscout.repository.GroothandelVoorraadRepository ..o nl.crolox.labelscout.domain.Groothandel

' nl.crolox.labelscout.repository.ProductRepository

' nl.crolox.labelscout.repository.GebruikerRepository

' nl.crolox.labelscout.repository.LoggerRepository
nl.crolox.labelscout.repository.LoggerRepository ..o nl.crolox.labelscout.domain.Logger

' nl.crolox.labelscout.repository.AuditLogRepository
nl.crolox.labelscout.repository.AuditLogRepository ..o nl.crolox.labelscout.domain.Apotheek
nl.crolox.labelscout.repository.AuditLogRepository ..o nl.crolox.labelscout.domain.AuditLog

' nl.crolox.labelscout.repository.VoorraadClusterRepository
nl.crolox.labelscout.repository.VoorraadClusterRepository ..o nl.crolox.labelscout.domain.VoorraadCluster

' nl.crolox.labelscout.repository.ApotheekRepository

' nl.crolox.labelscout.repository.AuditLogRepository

' nl.crolox.labelscout.repository.ApotheekRepository

' nl.crolox.labelscout.repository.ProductRepository

' nl.crolox.labelscout.repository.GroepRepository

' nl.crolox.labelscout.repository.RequestResponseAuditRepository

' nl.crolox.labelscout.repository.LoggerRepository

' nl.crolox.labelscout.repository.LabelRepository

' nl.crolox.labelscout.repository.ApotheekGroepRepository

' nl.crolox.labelscout.repository.VoorraadClusterRepository

' nl.crolox.labelscout.repository.GebruikerRepository

' nl.crolox.labelscout.repository.GroothandelRepository

' nl.crolox.labelscout.repository.GroothandelVoorraadRepository


!endsub


!startsub IMPORTS_NL_CROLOX_LABELSCOUT_SERVICE
' nl.crolox.labelscout.service.LabelscoutServiceV1
nl.crolox.labelscout.service.LabelscoutServiceV1 ..o nl.crolox.labelscout.repository.RequestResponseAuditRepository
nl.crolox.labelscout.service.LabelscoutServiceV1 ..o nl.crolox.labelscout.repository.AuditLogRepository
nl.crolox.labelscout.service.LabelscoutServiceV1 ..o nl.crolox.labelscout.helper.Product
nl.crolox.labelscout.service.LabelscoutServiceV1 ..o nl.crolox.labelscout.repository.ApotheekRepository
nl.crolox.labelscout.service.LabelscoutServiceV1 ..o nl.crolox.labelscout.web.Utils
nl.crolox.labelscout.service.LabelscoutServiceV1 ..o nl.crolox.labelscout.GlobalUtils
nl.crolox.labelscout.service.LabelscoutServiceV1 ..o nl.crolox.labelscout.Constants
nl.crolox.labelscout.service.LabelscoutServiceV1 ..o nl.crolox.labelscout.aspect.Loggable

' nl.crolox.labelscout.service.DataWareHouseAPIServiceV1
nl.crolox.labelscout.service.DataWareHouseAPIServiceV1 ..o nl.crolox.labelscout.repository.RequestResponseAuditRepository
nl.crolox.labelscout.service.DataWareHouseAPIServiceV1 ..o nl.crolox.labelscout.repository.ApotheekRepository
nl.crolox.labelscout.service.DataWareHouseAPIServiceV1 ..o io.swagger.v3.oas.annotations.Operation
nl.crolox.labelscout.service.DataWareHouseAPIServiceV1 ..o io.swagger.v3.oas.annotations.tags.Tag
nl.crolox.labelscout.service.DataWareHouseAPIServiceV1 ..o nl.crolox.labelscout.GlobalUtils
nl.crolox.labelscout.service.DataWareHouseAPIServiceV1 ..o nl.crolox.labelscout.Constants
nl.crolox.labelscout.service.DataWareHouseAPIServiceV1 ..o nl.crolox.labelscout.aspect.Loggable

' nl.crolox.labelscout.service.ProductAdviesService
nl.crolox.labelscout.service.ProductAdviesService ..o nl.crolox.labelscout.domain.Groep
nl.crolox.labelscout.service.ProductAdviesService ..o nl.crolox.labelscout.repository.LabelRepository
nl.crolox.labelscout.service.ProductAdviesService ..o nl.crolox.labelscout.domain.Label
nl.crolox.labelscout.service.ProductAdviesService ..o nl.crolox.labelscout.domain.Groothandel
nl.crolox.labelscout.service.ProductAdviesService ..o nl.crolox.labelscout.repository.GroothandelVoorraadRepository
nl.crolox.labelscout.service.ProductAdviesService ..o nl.crolox.labelscout.repository.ProductRepository
nl.crolox.labelscout.service.ProductAdviesService ..o nl.crolox.labelscout.aspect.Loggable

' nl.crolox.labelscout.service.ProductAdviesService$PreferentieClusterResponse$Embedded

' nl.crolox.labelscout.service.VoorraadVerwerkingService
nl.crolox.labelscout.service.VoorraadVerwerkingService ..o nl.crolox.labelscout.GlobalUtils
nl.crolox.labelscout.service.VoorraadVerwerkingService ..o nl.crolox.labelscout.domain.GroothandelVoorraad
nl.crolox.labelscout.service.VoorraadVerwerkingService ..o nl.crolox.labelscout.domain.Groothandel
nl.crolox.labelscout.service.VoorraadVerwerkingService ..o nl.crolox.labelscout.repository.GroothandelRepository
nl.crolox.labelscout.service.VoorraadVerwerkingService ..o nl.crolox.labelscout.repository.GroothandelVoorraadRepository

' nl.crolox.labelscout.service.ProductAdviesService$PreferentieClusterResponse

' nl.crolox.labelscout.service.ProductAdviesService$PreferentieClusterResponse$PreferentieCluster

' nl.crolox.labelscout.service.ProductAdviesService$PreferentieClusterResponse$Embedded

' nl.crolox.labelscout.service.LabelscoutServiceV1

' nl.crolox.labelscout.service.ProductAdviesService$PreferentieClusterResponse$PreferentieCluster

' nl.crolox.labelscout.service.ProductAdviesService$PreferentieClusterResponse

' nl.crolox.labelscout.service.VoorraadVerwerkingService

' nl.crolox.labelscout.service.ProductAdviesService

' nl.crolox.labelscout.service.DataWareHouseAPIServiceV1


!endsub


!startsub IMPORTS_NL_CROLOX_LABELSCOUT_WEB
' nl.crolox.labelscout.web.ApotheekVoorraadRestController
nl.crolox.labelscout.web.ApotheekVoorraadRestController ..o nl.crolox.labelscout.domain.Apotheek
nl.crolox.labelscout.web.ApotheekVoorraadRestController ..o nl.crolox.labelscout.domain.Groothandel
nl.crolox.labelscout.web.ApotheekVoorraadRestController ..o nl.crolox.labelscout.repository.GroothandelVoorraadRepository
nl.crolox.labelscout.web.ApotheekVoorraadRestController ..o nl.crolox.labelscout.repository.ApotheekRepository
nl.crolox.labelscout.web.ApotheekVoorraadRestController ..o nl.crolox.labelscout.aspect.Loggable

' nl.crolox.labelscout.web.HomeController
nl.crolox.labelscout.web.HomeController ..o nl.crolox.labelscout.aspect.Loggable

' nl.crolox.labelscout.web.Utils

' nl.crolox.labelscout.web.ZoekController
nl.crolox.labelscout.web.ZoekController ..o nl.crolox.labelscout.repository.RequestResponseAuditRepository
nl.crolox.labelscout.web.ZoekController ..o nl.crolox.labelscout.repository.AuditLogRepository
nl.crolox.labelscout.web.ZoekController ..o nl.crolox.labelscout.helper.Product
nl.crolox.labelscout.web.ZoekController ..o nl.crolox.labelscout.repository.ApotheekRepository
nl.crolox.labelscout.web.ZoekController ..o nl.crolox.labelscout.GlobalUtils
nl.crolox.labelscout.web.ZoekController ..o nl.crolox.labelscout.service.ProductAdviesService
nl.crolox.labelscout.web.ZoekController ..o nl.crolox.labelscout.Constants
nl.crolox.labelscout.web.ZoekController ..o nl.crolox.labelscout.aspect.Loggable

' nl.crolox.labelscout.web.AdminPagesController
nl.crolox.labelscout.web.AdminPagesController ..o nl.crolox.labelscout.helper.GroepHelper
nl.crolox.labelscout.web.AdminPagesController ..o nl.crolox.labelscout.helper.LabelHelper
nl.crolox.labelscout.web.AdminPagesController ..o nl.crolox.labelscout.helper.OrderUpdateRequest
nl.crolox.labelscout.web.AdminPagesController ..o nl.crolox.labelscout.helper.ApotheekHelper
nl.crolox.labelscout.web.AdminPagesController ..o nl.crolox.labelscout.aspect.Loggable

' nl.crolox.labelscout.web.ZoekController

' nl.crolox.labelscout.web.AdminPagesController

' nl.crolox.labelscout.web.ApotheekVoorraadRestController

' nl.crolox.labelscout.web.HomeController

' nl.crolox.labelscout.web.Utils


!endsub


@enduml
