@startuml
'https://plantuml.com/class-diagram

' GENERATE CLASS DIAGRAM ===========
' Generator       : it.brunasti.java.diagrammer.ClassDiagrammer
' Path            : [./target/test-classes]
' Configuration   : []
' Generated at    : Mon May 18 09:47:06 CEST 2026
'
'   Stat infos    :
'       Files : [38]
'       Lines : [0]
'     Classes : [34]
'     Methods : [398]
'      Fields : [56]



'!includesub .puml!IT_BRUNASTI_JAVA_DIAGRAMMER
'!includesub .puml!INHERITANCES_IT_BRUNASTI_JAVA_DIAGRAMMER
'!includesub .puml!IMPLEMENTS_IT_BRUNASTI_JAVA_DIAGRAMMER
'!includesub .puml!FIELDS_IT_BRUNASTI_JAVA_DIAGRAMMER
'!includesub .puml!USES_IT_BRUNASTI_JAVA_DIAGRAMMER
'!includesub .puml!IMPORTS_IT_BRUNASTI_JAVA_DIAGRAMMER

'!includesub .puml!IT_BRUNASTI_JAVA_DIAGRAMMER_SPRING_WEB
'!includesub .puml!INHERITANCES_IT_BRUNASTI_JAVA_DIAGRAMMER_SPRING_WEB
'!includesub .puml!IMPLEMENTS_IT_BRUNASTI_JAVA_DIAGRAMMER_SPRING_WEB
'!includesub .puml!FIELDS_IT_BRUNASTI_JAVA_DIAGRAMMER_SPRING_WEB
'!includesub .puml!USES_IT_BRUNASTI_JAVA_DIAGRAMMER_SPRING_WEB
'!includesub .puml!IMPORTS_IT_BRUNASTI_JAVA_DIAGRAMMER_SPRING_WEB

'!includesub .puml!IT_BRUNASTI_JAVA_DIAGRAMMER_TESTSTRUCTURE
'!includesub .puml!INHERITANCES_IT_BRUNASTI_JAVA_DIAGRAMMER_TESTSTRUCTURE
'!includesub .puml!IMPLEMENTS_IT_BRUNASTI_JAVA_DIAGRAMMER_TESTSTRUCTURE
'!includesub .puml!FIELDS_IT_BRUNASTI_JAVA_DIAGRAMMER_TESTSTRUCTURE
'!includesub .puml!USES_IT_BRUNASTI_JAVA_DIAGRAMMER_TESTSTRUCTURE
'!includesub .puml!IMPORTS_IT_BRUNASTI_JAVA_DIAGRAMMER_TESTSTRUCTURE



' CLASSES =======
!startsub IT_BRUNASTI_JAVA_DIAGRAMMER
class it.brunasti.java.diagrammer.OctaDiagramGenerationTest
class it.brunasti.java.diagrammer.DebuggerTest
class it.brunasti.java.diagrammer.ImportsIdentifierTest
class it.brunasti.java.diagrammer.ClassDiagrammerTest
interface it.brunasti.java.diagrammer.TestConstants
class it.brunasti.java.diagrammer.DiagramPlotterTest
class it.brunasti.java.diagrammer.ClassDiagrammerMainTest
class it.brunasti.java.diagrammer.UtilsTest
class it.brunasti.java.diagrammer.DocumentGenerationTest
class it.brunasti.java.diagrammer.AdHocDiagramGenerationTest

!endsub

!startsub IT_BRUNASTI_JAVA_DIAGRAMMER_SPRING_WEB
class it.brunasti.java.diagrammer.spring.web.OctaWebFlowAnalyserTest
class it.brunasti.java.diagrammer.spring.web.WebFlowAnalyserMainTest

!endsub

!startsub IT_BRUNASTI_JAVA_DIAGRAMMER_TESTSTRUCTURE
class it.brunasti.java.diagrammer.teststructure.TestExtendedClass
class it.brunasti.java.diagrammer.teststructure.TestBaseClass
enum it.brunasti.java.diagrammer.teststructure.TestEnumClass{
  FIRST
  SECOND
  THIRD
}
abstract it.brunasti.java.diagrammer.teststructure.TestAbstractClass
class it.brunasti.java.diagrammer.teststructure.TestOtherClass

!endsub

' INHERITANCES =======

!startsub INHERITANCES_IT_BRUNASTI_JAVA_DIAGRAMMER

!endsub


!startsub INHERITANCES_IT_BRUNASTI_JAVA_DIAGRAMMER_SPRING_WEB

!endsub


!startsub INHERITANCES_IT_BRUNASTI_JAVA_DIAGRAMMER_TESTSTRUCTURE
it.brunasti.java.diagrammer.teststructure.TestBaseClass <|-- it.brunasti.java.diagrammer.teststructure.TestExtendedClass
it.brunasti.java.diagrammer.teststructure.TestAbstractClass <|-- it.brunasti.java.diagrammer.teststructure.TestBaseClass
java.lang.Enum <|-- it.brunasti.java.diagrammer.teststructure.TestEnumClass
it.brunasti.java.diagrammer.teststructure.TestAbstractClass <|-- it.brunasti.java.diagrammer.teststructure.TestOtherClass

!endsub

' IMPLEMENT INTERFACE =======

!startsub IMPLEMENTS_IT_BRUNASTI_JAVA_DIAGRAMMER
it.brunasti.java.diagrammer.TestConstants <|.. it.brunasti.java.diagrammer.OctaDiagramGenerationTest
it.brunasti.java.diagrammer.TestConstants <|.. it.brunasti.java.diagrammer.DebuggerTest
it.brunasti.java.diagrammer.TestConstants <|.. it.brunasti.java.diagrammer.ImportsIdentifierTest
it.brunasti.java.diagrammer.TestConstants <|.. it.brunasti.java.diagrammer.ClassDiagrammerTest
it.brunasti.java.diagrammer.TestConstants <|.. it.brunasti.java.diagrammer.ClassDiagrammerMainTest
it.brunasti.java.diagrammer.TestConstants <|.. it.brunasti.java.diagrammer.UtilsTest
it.brunasti.java.diagrammer.TestConstants <|.. it.brunasti.java.diagrammer.DocumentGenerationTest
it.brunasti.java.diagrammer.TestConstants <|.. it.brunasti.java.diagrammer.AdHocDiagramGenerationTest

!endsub


!startsub IMPLEMENTS_IT_BRUNASTI_JAVA_DIAGRAMMER_SPRING_WEB
it.brunasti.java.diagrammer.TestConstants <|.. it.brunasti.java.diagrammer.spring.web.OctaWebFlowAnalyserTest
it.brunasti.java.diagrammer.TestConstants <|.. it.brunasti.java.diagrammer.spring.web.WebFlowAnalyserMainTest

!endsub


!startsub IMPLEMENTS_IT_BRUNASTI_JAVA_DIAGRAMMER_TESTSTRUCTURE
it.brunasti.java.diagrammer.TestConstants <|.. it.brunasti.java.diagrammer.teststructure.TestBaseClass
it.brunasti.java.diagrammer.TestConstants <|.. it.brunasti.java.diagrammer.teststructure.TestOtherClass

!endsub

' FIELDS =======

!startsub FIELDS_IT_BRUNASTI_JAVA_DIAGRAMMER

!endsub


!startsub FIELDS_IT_BRUNASTI_JAVA_DIAGRAMMER_SPRING_WEB

!endsub


!startsub FIELDS_IT_BRUNASTI_JAVA_DIAGRAMMER_TESTSTRUCTURE
it.brunasti.java.diagrammer.teststructure.TestBaseClass --> it.brunasti.java.diagrammer.teststructure.TestBaseClass
it.brunasti.java.diagrammer.teststructure.TestBaseClass --> it.brunasti.java.diagrammer.teststructure.TestEnumClass
it.brunasti.java.diagrammer.teststructure.TestOtherClass --> it.brunasti.java.diagrammer.teststructure.TestBaseClass
it.brunasti.java.diagrammer.teststructure.TestOtherClass --> it.brunasti.java.diagrammer.teststructure.TestEnumClass

!endsub

' USES =======

!startsub USES_IT_BRUNASTI_JAVA_DIAGRAMMER
it.brunasti.java.diagrammer.DebuggerTest ..> it.brunasti.java.diagrammer.Debugger
it.brunasti.java.diagrammer.ImportsIdentifierTest ..> java.util.Set
it.brunasti.java.diagrammer.ImportsIdentifierTest ..> it.brunasti.java.diagrammer.ImportsIdentifier
it.brunasti.java.diagrammer.ClassDiagrammerTest ..> it.brunasti.java.diagrammer.ClassDiagrammer
it.brunasti.java.diagrammer.DiagramPlotterTest ..> java.util.List
it.brunasti.java.diagrammer.DiagramPlotterTest ..> it.brunasti.java.diagrammer.DiagramPlotter
it.brunasti.java.diagrammer.ClassDiagrammerMainTest ..> it.brunasti.java.diagrammer.ClassDiagrammerMain
it.brunasti.java.diagrammer.ClassDiagrammerMainTest ..> Ljava.lang.String
it.brunasti.java.diagrammer.ClassDiagrammerMainTest ..> org.apache.commons.cli.Options
it.brunasti.java.diagrammer.UtilsTest ..> it.brunasti.java.diagrammer.Utils
it.brunasti.java.diagrammer.UtilsTest ..> java.util.Set
it.brunasti.java.diagrammer.UtilsTest ..> java.util.ArrayList
it.brunasti.java.diagrammer.UtilsTest ..> Ljava.lang.Object
it.brunasti.java.diagrammer.DocumentGenerationTest ..> Ljava.lang.String
it.brunasti.java.diagrammer.DocumentGenerationTest ..> java.util.List
it.brunasti.java.diagrammer.DocumentGenerationTest ..> it.brunasti.java.diagrammer.DiagramPlotter

!endsub


!startsub USES_IT_BRUNASTI_JAVA_DIAGRAMMER_SPRING_WEB
it.brunasti.java.diagrammer.spring.web.OctaWebFlowAnalyserTest ..> Ljava.lang.String
it.brunasti.java.diagrammer.spring.web.WebFlowAnalyserMainTest ..> it.brunasti.java.diagrammer.spring.web.WebFlowAnalyserMain
it.brunasti.java.diagrammer.spring.web.WebFlowAnalyserMainTest ..> Ljava.lang.String
it.brunasti.java.diagrammer.spring.web.WebFlowAnalyserMainTest ..> org.apache.commons.cli.Options

!endsub


!startsub USES_IT_BRUNASTI_JAVA_DIAGRAMMER_TESTSTRUCTURE

!endsub

' IMPORTS =======
' Java Files Path : 


@enduml
