@startuml
'https://plantuml.com/class-diagram

' GENERATE CLASS DIAGRAM ===========
' Generator       : it.brunasti.java.diagrammer.ClassDiagrammer
' Path            : [/Users/paolo/Work/Tadaah/fp-backend-commons/fp-http-client/build/classes/java/main]
' Java Files Path : [/Users/paolo/Work/Tadaah/fp-backend-commons/fp-http-client/src/main/java/]
' Configuration   : [/Users/paolo/IdeaProjects/mine/java-diagrammer/temp/tadaah/config.json]
' Generated at    : Fri Jan 17 20:03:25 CET 2025
'
'   Stat infos    :
'       Files : [38]
'       Lines : [808]
'     Classes : [38]
'     Methods : [254]
'      Fields : [115]



' CLASSES =======
class com.freelanceplaza.commons.fphttpclient.tokenhandlers.cache.MapTokenCache
class com.freelanceplaza.commons.fphttpclient.okta.Auth0Organization
class com.freelanceplaza.commons.fphttpclient.ports.AbstractApiPort$HeaderContentTypeHolder
class com.freelanceplaza.commons.fphttpclient.authproxy.requests.CreateOrganizationUserRequest
class com.freelanceplaza.commons.fphttpclient.authproxy.requests.AddMembersToOrganizationRequest
class com.freelanceplaza.commons.fphttpclient.authproxy.requests.AddRolesToOrganizationMemberRequest
class com.freelanceplaza.commons.fphttpclient.authproxy.requests.AssignIdRequest
class com.freelanceplaza.commons.fphttpclient.syncports.userservicesync.UserServiceSyncPortConfig
class com.freelanceplaza.commons.fphttpclient.ports.FormDataConverter$1
class com.freelanceplaza.commons.fphttpclient.ports.AbstractApiPort$2
class com.freelanceplaza.commons.fphttpclient.ports.AbstractApiPort$3
class com.freelanceplaza.commons.fphttpclient.tokenhandlers.ClientCredentialsTokenHandler$ClientCredentialsTokenHandlerBuilder
class com.freelanceplaza.commons.fphttpclient.ports.AbstractApiPort$4
class com.freelanceplaza.commons.fphttpclient.okta.Auth0UserDetails$Metadata
class com.freelanceplaza.commons.fphttpclient.tokenhandlers.ClientCredentialsTokenHandler
class com.freelanceplaza.commons.fphttpclient.ports.AbstractApiPort$1
class com.freelanceplaza.commons.fphttpclient.tokenhandlers.cache.RedisTokenCache
class com.freelanceplaza.commons.fphttpclient.syncports.userservicesync.UserServiceSyncPort$1
class com.freelanceplaza.commons.fphttpclient.okta.Auth0UserDetails$Identity
class com.freelanceplaza.commons.fphttpclient.syncports.userservicesync.Request
class com.freelanceplaza.commons.fphttpclient.okta.OktaAuthPort$1
class com.freelanceplaza.commons.fphttpclient.okta.Auth0UserDetails
class com.freelanceplaza.commons.fphttpclient.okta.OktaAuthPort
abstract com.freelanceplaza.commons.fphttpclient.ports.AbstractApiPort
abstract com.freelanceplaza.commons.fphttpclient.ports.MachineToMachineApiPort
class com.freelanceplaza.commons.fphttpclient.okta.Auth0Organization$EnabledConnection
interface com.freelanceplaza.commons.fphttpclient.okta.OktaAuthPortRoutes
class com.freelanceplaza.commons.fphttpclient.authproxy.requests.CreateOrganizationRequest
class com.freelanceplaza.commons.fphttpclient.okta.Auth0Role
class com.freelanceplaza.commons.fphttpclient.okta.Auth0Organization$Connection
class com.freelanceplaza.commons.fphttpclient.tokenhandlers.cache.MapTokenCache$CacheObject
class com.freelanceplaza.commons.fphttpclient.ports.FormDataConverter
class com.freelanceplaza.commons.fphttpclient.ports.AbstractApiPort$HttpResponseWrapper
class com.freelanceplaza.commons.fphttpclient.syncports.userservicesync.Response
class com.freelanceplaza.commons.fphttpclient.syncports.userservicesync.UserServiceSyncPort
class com.freelanceplaza.commons.fphttpclient.ports.AbstractApiPort$HttpRequestWrapper
class com.freelanceplaza.commons.fphttpclient.okta.AccessToken
class com.freelanceplaza.commons.fphttpclient.exceptions.HttpClientException

' INHERITANCES =======
java.lang.Record <|-- com.freelanceplaza.commons.fphttpclient.ports.AbstractApiPort$HeaderContentTypeHolder
com.freelanceplaza.commons.fphttpclient.ports.AbstractApiPort <|-- com.freelanceplaza.commons.fphttpclient.okta.OktaAuthPort
com.freelanceplaza.commons.fphttpclient.ports.AbstractApiPort <|-- com.freelanceplaza.commons.fphttpclient.ports.MachineToMachineApiPort
java.lang.Record <|-- com.freelanceplaza.commons.fphttpclient.tokenhandlers.cache.MapTokenCache$CacheObject
com.freelanceplaza.commons.fphttpclient.ports.MachineToMachineApiPort <|-- com.freelanceplaza.commons.fphttpclient.syncports.userservicesync.UserServiceSyncPort
java.lang.RuntimeException <|-- com.freelanceplaza.commons.fphttpclient.exceptions.HttpClientException

' IMPLEMENT INTERFACE =======

' FIELDS =======
com.freelanceplaza.commons.fphttpclient.syncports.userservicesync.UserServiceSyncPortConfig --> com.freelanceplaza.commons.fpcommons.httpclient.TokenHandler
com.freelanceplaza.commons.fphttpclient.ports.AbstractApiPort$2 --> com.freelanceplaza.commons.fphttpclient.ports.AbstractApiPort
com.freelanceplaza.commons.fphttpclient.ports.AbstractApiPort$3 --> com.freelanceplaza.commons.fphttpclient.ports.AbstractApiPort
com.freelanceplaza.commons.fphttpclient.tokenhandlers.ClientCredentialsTokenHandler$ClientCredentialsTokenHandlerBuilder --> com.freelanceplaza.commons.fphttpclient.okta.OktaAuthPort
com.freelanceplaza.commons.fphttpclient.tokenhandlers.ClientCredentialsTokenHandler$ClientCredentialsTokenHandlerBuilder --> com.freelanceplaza.commons.fpcommons.caching.TokenCache
com.freelanceplaza.commons.fphttpclient.ports.AbstractApiPort$4 --> com.freelanceplaza.commons.fphttpclient.ports.AbstractApiPort
com.freelanceplaza.commons.fphttpclient.tokenhandlers.ClientCredentialsTokenHandler --> com.freelanceplaza.commons.fphttpclient.okta.OktaAuthPort
com.freelanceplaza.commons.fphttpclient.tokenhandlers.ClientCredentialsTokenHandler --> com.freelanceplaza.commons.fpcommons.caching.TokenCache
com.freelanceplaza.commons.fphttpclient.ports.AbstractApiPort$1 --> com.freelanceplaza.commons.fphttpclient.ports.AbstractApiPort
com.freelanceplaza.commons.fphttpclient.tokenhandlers.cache.RedisTokenCache --> com.freelanceplaza.commons.fpcommons.caching.JedisPoolWrapper
com.freelanceplaza.commons.fphttpclient.syncports.userservicesync.UserServiceSyncPort$1 --> com.freelanceplaza.commons.fphttpclient.syncports.userservicesync.UserServiceSyncPort
com.freelanceplaza.commons.fphttpclient.okta.OktaAuthPort$1 --> com.freelanceplaza.commons.fphttpclient.okta.OktaAuthPort
com.freelanceplaza.commons.fphttpclient.okta.Auth0UserDetails --> com.freelanceplaza.commons.fphttpclient.okta.Auth0UserDetails$Metadata
com.freelanceplaza.commons.fphttpclient.okta.Auth0UserDetails --> com.freelanceplaza.commons.fphttpclient.okta.Auth0UserDetails$Metadata
com.freelanceplaza.commons.fphttpclient.ports.MachineToMachineApiPort --> com.freelanceplaza.commons.fpcommons.httpclient.TokenHandler
com.freelanceplaza.commons.fphttpclient.okta.Auth0Organization$EnabledConnection --> com.freelanceplaza.commons.fphttpclient.okta.Auth0Organization$Connection
com.freelanceplaza.commons.fphttpclient.syncports.userservicesync.UserServiceSyncPort --> com.freelanceplaza.commons.fphttpclient.syncports.userservicesync.UserServiceSyncPortConfig

' USES =======
com.freelanceplaza.commons.fphttpclient.okta.Auth0Organization ..> com.freelanceplaza.commons.fphttpclient.okta.Auth0Organization
com.freelanceplaza.commons.fphttpclient.authproxy.requests.CreateOrganizationUserRequest ..> com.freelanceplaza.commons.fphttpclient.authproxy.requests.CreateOrganizationUserRequest
com.freelanceplaza.commons.fphttpclient.authproxy.requests.AddMembersToOrganizationRequest ..> com.freelanceplaza.commons.fphttpclient.authproxy.requests.AddMembersToOrganizationRequest
com.freelanceplaza.commons.fphttpclient.authproxy.requests.AddRolesToOrganizationMemberRequest ..> com.freelanceplaza.commons.fphttpclient.authproxy.requests.AddRolesToOrganizationMemberRequest
com.freelanceplaza.commons.fphttpclient.authproxy.requests.AssignIdRequest ..> com.freelanceplaza.commons.fphttpclient.authproxy.requests.AssignIdRequest
com.freelanceplaza.commons.fphttpclient.syncports.userservicesync.UserServiceSyncPortConfig ..> com.freelanceplaza.commons.fpcommons.httpclient.TokenHandler
com.freelanceplaza.commons.fphttpclient.ports.AbstractApiPort$2 ..> com.freelanceplaza.commons.fphttpclient.ports.AbstractApiPort
com.freelanceplaza.commons.fphttpclient.ports.AbstractApiPort$3 ..> com.freelanceplaza.commons.fphttpclient.ports.AbstractApiPort
com.freelanceplaza.commons.fphttpclient.tokenhandlers.ClientCredentialsTokenHandler$ClientCredentialsTokenHandlerBuilder ..> com.freelanceplaza.commons.fphttpclient.tokenhandlers.ClientCredentialsTokenHandler$ClientCredentialsTokenHandlerBuilder
com.freelanceplaza.commons.fphttpclient.tokenhandlers.ClientCredentialsTokenHandler$ClientCredentialsTokenHandlerBuilder ..> com.freelanceplaza.commons.fphttpclient.okta.OktaAuthPort
com.freelanceplaza.commons.fphttpclient.tokenhandlers.ClientCredentialsTokenHandler$ClientCredentialsTokenHandlerBuilder ..> com.freelanceplaza.commons.fpcommons.caching.TokenCache
com.freelanceplaza.commons.fphttpclient.tokenhandlers.ClientCredentialsTokenHandler$ClientCredentialsTokenHandlerBuilder ..> com.freelanceplaza.commons.fphttpclient.tokenhandlers.ClientCredentialsTokenHandler
com.freelanceplaza.commons.fphttpclient.ports.AbstractApiPort$4 ..> com.freelanceplaza.commons.fphttpclient.ports.AbstractApiPort
com.freelanceplaza.commons.fphttpclient.okta.Auth0UserDetails$Metadata ..> com.freelanceplaza.commons.fphttpclient.okta.Auth0UserDetails$Metadata
com.freelanceplaza.commons.fphttpclient.tokenhandlers.ClientCredentialsTokenHandler ..> com.freelanceplaza.commons.fphttpclient.tokenhandlers.ClientCredentialsTokenHandler$ClientCredentialsTokenHandlerBuilder
com.freelanceplaza.commons.fphttpclient.tokenhandlers.ClientCredentialsTokenHandler ..> com.freelanceplaza.commons.fphttpclient.okta.OktaAuthPort
com.freelanceplaza.commons.fphttpclient.tokenhandlers.ClientCredentialsTokenHandler ..> com.freelanceplaza.commons.fpcommons.caching.TokenCache
com.freelanceplaza.commons.fphttpclient.ports.AbstractApiPort$1 ..> com.freelanceplaza.commons.fphttpclient.ports.AbstractApiPort
com.freelanceplaza.commons.fphttpclient.tokenhandlers.cache.RedisTokenCache ..> com.freelanceplaza.commons.fpcommons.caching.JedisPoolWrapper
com.freelanceplaza.commons.fphttpclient.syncports.userservicesync.UserServiceSyncPort$1 ..> com.freelanceplaza.commons.fphttpclient.syncports.userservicesync.UserServiceSyncPort
com.freelanceplaza.commons.fphttpclient.okta.Auth0UserDetails$Identity ..> com.freelanceplaza.commons.fphttpclient.okta.Auth0UserDetails$Identity
com.freelanceplaza.commons.fphttpclient.syncports.userservicesync.Request ..> com.freelanceplaza.commons.fphttpclient.syncports.userservicesync.Request
com.freelanceplaza.commons.fphttpclient.okta.OktaAuthPort$1 ..> com.freelanceplaza.commons.fphttpclient.okta.OktaAuthPort
com.freelanceplaza.commons.fphttpclient.okta.Auth0UserDetails ..> com.freelanceplaza.commons.fphttpclient.okta.Auth0UserDetails$Metadata
com.freelanceplaza.commons.fphttpclient.okta.Auth0UserDetails ..> com.freelanceplaza.commons.fphttpclient.okta.Auth0UserDetails
com.freelanceplaza.commons.fphttpclient.okta.OktaAuthPort ..> com.freelanceplaza.commons.fphttpclient.okta.AccessToken
com.freelanceplaza.commons.fphttpclient.ports.AbstractApiPort ..> com.freelanceplaza.commons.fphttpclient.ports.AbstractApiPort$HeaderContentTypeHolder
com.freelanceplaza.commons.fphttpclient.ports.AbstractApiPort ..> com.freelanceplaza.commons.fphttpclient.ports.AbstractApiPort$HttpRequestWrapper
com.freelanceplaza.commons.fphttpclient.ports.AbstractApiPort ..> com.freelanceplaza.commons.fphttpclient.ports.AbstractApiPort$HttpResponseWrapper
com.freelanceplaza.commons.fphttpclient.ports.MachineToMachineApiPort ..> com.freelanceplaza.commons.fpcommons.httpclient.TokenHandler
com.freelanceplaza.commons.fphttpclient.okta.Auth0Organization$EnabledConnection ..> com.freelanceplaza.commons.fphttpclient.okta.Auth0Organization$Connection
com.freelanceplaza.commons.fphttpclient.okta.Auth0Organization$EnabledConnection ..> com.freelanceplaza.commons.fphttpclient.okta.Auth0Organization$EnabledConnection
com.freelanceplaza.commons.fphttpclient.authproxy.requests.CreateOrganizationRequest ..> com.freelanceplaza.commons.fphttpclient.authproxy.requests.CreateOrganizationRequest
com.freelanceplaza.commons.fphttpclient.okta.Auth0Role ..> com.freelanceplaza.commons.fphttpclient.okta.Auth0Role
com.freelanceplaza.commons.fphttpclient.okta.Auth0Organization$Connection ..> com.freelanceplaza.commons.fphttpclient.okta.Auth0Organization$Connection
com.freelanceplaza.commons.fphttpclient.syncports.userservicesync.Response ..> com.freelanceplaza.commons.fphttpclient.syncports.userservicesync.Response
com.freelanceplaza.commons.fphttpclient.syncports.userservicesync.UserServiceSyncPort ..> com.freelanceplaza.commons.fphttpclient.syncports.userservicesync.UserServiceSyncPortConfig
com.freelanceplaza.commons.fphttpclient.syncports.userservicesync.UserServiceSyncPort ..> com.freelanceplaza.commons.fphttpclient.syncports.userservicesync.Response
com.freelanceplaza.commons.fphttpclient.syncports.userservicesync.UserServiceSyncPort ..> com.freelanceplaza.commons.fphttpclient.syncports.userservicesync.Request
com.freelanceplaza.commons.fphttpclient.okta.AccessToken ..> com.freelanceplaza.commons.fphttpclient.okta.AccessToken

' IMPORTS =======
' Java Files Path : /Users/paolo/Work/Tadaah/fp-backend-commons/fp-http-client/src/main/java/
' com.freelanceplaza.commons.fphttpclient.tokenhandlers.cache.MapTokenCache
com.freelanceplaza.commons.fphttpclient.tokenhandlers.cache.MapTokenCache ..o com.freelanceplaza.commons.fpcommons.caching.TokenCache

' com.freelanceplaza.commons.fphttpclient.okta.Auth0Organization

' com.freelanceplaza.commons.fphttpclient.ports.AbstractApiPort$HeaderContentTypeHolder

' com.freelanceplaza.commons.fphttpclient.authproxy.requests.CreateOrganizationUserRequest

' com.freelanceplaza.commons.fphttpclient.authproxy.requests.AddMembersToOrganizationRequest

' com.freelanceplaza.commons.fphttpclient.authproxy.requests.AddRolesToOrganizationMemberRequest

' com.freelanceplaza.commons.fphttpclient.authproxy.requests.AssignIdRequest

' com.freelanceplaza.commons.fphttpclient.syncports.userservicesync.UserServiceSyncPortConfig
com.freelanceplaza.commons.fphttpclient.syncports.userservicesync.UserServiceSyncPortConfig ..o com.freelanceplaza.commons.fpcommons.httpclient.TokenHandler

' com.freelanceplaza.commons.fphttpclient.ports.FormDataConverter$1

' com.freelanceplaza.commons.fphttpclient.ports.AbstractApiPort$2

' com.freelanceplaza.commons.fphttpclient.ports.AbstractApiPort$3

' com.freelanceplaza.commons.fphttpclient.tokenhandlers.ClientCredentialsTokenHandler$ClientCredentialsTokenHandlerBuilder

' com.freelanceplaza.commons.fphttpclient.ports.AbstractApiPort$4

' com.freelanceplaza.commons.fphttpclient.okta.Auth0UserDetails$Metadata

' com.freelanceplaza.commons.fphttpclient.tokenhandlers.ClientCredentialsTokenHandler
com.freelanceplaza.commons.fphttpclient.tokenhandlers.ClientCredentialsTokenHandler ..o com.freelanceplaza.commons.fpcommons.httpclient.TokenHandler
com.freelanceplaza.commons.fphttpclient.tokenhandlers.ClientCredentialsTokenHandler ..o com.freelanceplaza.commons.fpcommons.caching.TokenCache
com.freelanceplaza.commons.fphttpclient.tokenhandlers.ClientCredentialsTokenHandler ..o com.freelanceplaza.commons.fphttpclient.okta.OktaAuthPort

' com.freelanceplaza.commons.fphttpclient.ports.AbstractApiPort$1

' com.freelanceplaza.commons.fphttpclient.tokenhandlers.cache.RedisTokenCache
com.freelanceplaza.commons.fphttpclient.tokenhandlers.cache.RedisTokenCache ..o com.freelanceplaza.commons.fpcommons.caching.TokenCache
com.freelanceplaza.commons.fphttpclient.tokenhandlers.cache.RedisTokenCache ..o com.freelanceplaza.commons.fpcommons.caching.JedisPoolWrapper

' com.freelanceplaza.commons.fphttpclient.syncports.userservicesync.UserServiceSyncPort$1

' com.freelanceplaza.commons.fphttpclient.okta.Auth0UserDetails$Identity

' com.freelanceplaza.commons.fphttpclient.syncports.userservicesync.Request

' com.freelanceplaza.commons.fphttpclient.okta.OktaAuthPort$1

' com.freelanceplaza.commons.fphttpclient.okta.Auth0UserDetails

' com.freelanceplaza.commons.fphttpclient.okta.OktaAuthPort

' com.freelanceplaza.commons.fphttpclient.ports.AbstractApiPort

' com.freelanceplaza.commons.fphttpclient.ports.MachineToMachineApiPort
com.freelanceplaza.commons.fphttpclient.ports.MachineToMachineApiPort ..o com.freelanceplaza.commons.fpcommons.httpclient.TokenHandler
com.freelanceplaza.commons.fphttpclient.ports.MachineToMachineApiPort ..o com.freelanceplaza.commons.fphttpclient.exceptions.HttpClientException

' com.freelanceplaza.commons.fphttpclient.okta.Auth0Organization$EnabledConnection

' com.freelanceplaza.commons.fphttpclient.okta.OktaAuthPortRoutes

' com.freelanceplaza.commons.fphttpclient.authproxy.requests.CreateOrganizationRequest

' com.freelanceplaza.commons.fphttpclient.okta.Auth0Role

' com.freelanceplaza.commons.fphttpclient.okta.Auth0Organization$Connection

' com.freelanceplaza.commons.fphttpclient.tokenhandlers.cache.MapTokenCache$CacheObject

' com.freelanceplaza.commons.fphttpclient.ports.FormDataConverter

' com.freelanceplaza.commons.fphttpclient.ports.AbstractApiPort$HttpResponseWrapper

' com.freelanceplaza.commons.fphttpclient.syncports.userservicesync.Response
com.freelanceplaza.commons.fphttpclient.syncports.userservicesync.Response ..o com.freelanceplaza.commons.fpcommons.sync.organizations.OrganizationSync
com.freelanceplaza.commons.fphttpclient.syncports.userservicesync.Response ..o com.freelanceplaza.commons.fpcommons.sync.users.UserSync
com.freelanceplaza.commons.fphttpclient.syncports.userservicesync.Response ..o com.freelanceplaza.commons.fpcommons.sync.locations.LocationSync

' com.freelanceplaza.commons.fphttpclient.syncports.userservicesync.UserServiceSyncPort
com.freelanceplaza.commons.fphttpclient.syncports.userservicesync.UserServiceSyncPort ..o com.freelanceplaza.commons.fphttpclient.ports.MachineToMachineApiPort

' com.freelanceplaza.commons.fphttpclient.ports.AbstractApiPort$HttpRequestWrapper

' com.freelanceplaza.commons.fphttpclient.okta.AccessToken

' com.freelanceplaza.commons.fphttpclient.exceptions.HttpClientException



@enduml
